#!OML:ASF H:\Terrain\Patient Classification 1\Walking\liu\liu.ASF
:FULLY-SPECIFIED
:DEGREES
453
root 21.576599 34.935600 55.285999 10.673980 2.314980 4.474840
lowerback -11.500300 -2.677360 -5.818780
upperback -2.477640 -3.279140 2.699980
thorax 4.135020 -1.673792 5.804000
lowerneck -42.425598 -8.112420 -23.458200
upperneck 48.457600 -9.480360 21.058399
head 24.074400 -3.758000 10.372340
rclavicle -0.000000 0.000000
rhumerus -89.437599 21.245800 -176.420395
rradius 68.792801
rwrist -26.492001
rhand -59.377998 -66.998802
rfingers 14.250040
rthumb -6.034140 -126.915604
lclavicle -0.000000 0.000000
lhumerus -49.298000 -26.020599 179.370193
lradius 41.825001
lwrist -8.280820
lhand -22.164600 -46.528801
lfingers 14.250040
lthumb 29.882401 12.353340
rfemur -40.484402 -4.964120 34.563801
rtibia 129.591995
rfoot -20.157801 -16.334641
rtoes -35.144798
lfemur -37.710201 7.157120 -56.752201
ltibia 52.398800
lfoot -25.636000 9.041200
ltoes 0.832472
454
root 21.592600 34.948200 55.517601 10.456200 2.636440 3.914100
lowerback -11.088080 -3.123080 -5.490980
upperback -2.490760 -3.911900 3.101420
thorax 3.940560 -1.985870 5.995000
lowerneck -42.446400 -7.645820 -23.369200
upperneck 48.335602 -8.890840 21.265200
head 23.951599 -3.457840 10.532800
rclavicle 0.000000 0.000000
rhumerus -89.642998 21.646999 -176.132401
rradius 69.324799
rwrist -27.201401
rhand -62.030800 -62.076000
rfingers 14.250040
rthumb -8.596080 -121.948799
lclavicle 0.000000 0.000000
lhumerus -47.679001 -26.562201 178.979202
lradius 42.278999
lwrist -8.205420
lhand -22.967400 -47.025398
lfingers 14.250040
lthumb 29.108999 11.913440
rfemur -42.458199 -4.404080 35.339802
rtibia 128.721802
rfoot -22.001200 -16.764959
rtoes -34.262199
lfemur -36.644600 7.048800 -56.058998
ltibia 52.320801
lfoot -26.091801 8.829880
ltoes 2.469160
455
root 21.610201 34.928600 55.738602 10.599400 2.792100 3.587800
lowerback -10.942860 -3.408420 -5.147960
upperback -2.715440 -4.318880 3.283000
thorax 3.652340 -2.180580 5.966120
lowerneck -42.171398 -7.004620 -22.370001
upperneck 48.699402 -8.075040 20.229799
head 23.874599 -3.137320 10.102020
rclavicle -0.000000 -0.000000
rhumerus -90.441803 21.623199 -175.894196
rradius 70.372597
rwrist -27.746599
rhand -63.068401 -59.266201
rfingers 14.250040
rthumb -9.597940 -119.117401
lclavicle -0.000000 -0.000000
lhumerus -46.291599 -27.634399 178.619797
lradius 42.768200
lwrist -7.775180
lhand -23.892200 -47.483799
lfingers 14.250040
lthumb 28.218000 11.518180
rfemur -45.000000 -3.726720 35.818802
rtibia 127.855400
rfoot -23.936001 -17.220980
rtoes -34.504200
lfemur -36.038601 7.176240 -55.761002
ltibia 52.930599
lfoot -27.243200 8.746440
ltoes 1.365602
456
root 21.623199 34.884399 55.959999 10.264220 3.032860 3.602380
lowerback -10.518740 -3.740500 -5.276020
upperback -2.560520 -4.765740 3.377780
thorax 3.616380 -2.406300 6.112860
lowerneck -44.238800 -7.482460 -21.759600
upperneck 50.260601 -8.701680 19.689720
head 24.954201 -3.395880 9.754800
rclavicle -0.000000 0.000000
rhumerus -90.656601 22.043200 -176.090195
rradius 71.073402
rwrist -29.008600
rhand -63.418400 -59.945801
rfingers 14.250040
rthumb -9.935800 -119.789200
lclavicle -0.000000 0.000000
lhumerus -44.522202 -29.425200 178.184601
lradius 43.357399
lwrist -6.521040
lhand -24.400600 -47.837601
lfingers 14.250040
lthumb 27.728001 11.198300
rfemur -46.854599 -3.140340 35.893200
rtibia 126.950600
rfoot -26.312201 -17.279560
rtoes -35.907398
lfemur -34.807400 7.301080 -55.775799
ltibia 53.325802
lfoot -28.606800 8.789640
ltoes 1.322476
457
root 21.633200 34.831402 56.173401 9.583240 3.412080 3.503940
lowerback -9.680080 -4.120160 -5.387280
upperback -2.323420 -5.288920 3.584680
thorax 3.445440 -2.669760 6.375060
lowerneck -42.904202 -6.813040 -22.125401
upperneck 48.976200 -8.007900 20.843201
head 24.126400 -2.992360 10.329580
rclavicle -0.000000 -0.000000
rhumerus -90.723000 22.371599 -175.970795
rradius 71.885399
rwrist -30.614201
rhand -62.621601 -61.140999
rfingers 14.250040
rthumb -9.166540 -121.001801
lclavicle -0.000000 -0.000000
lhumerus -42.957401 -31.704399 177.915207
lradius 44.181000
lwrist -4.480360
lhand -25.355600 -48.126801
lfingers 14.250040
lthumb 26.807600 10.970820
rfemur -48.330200 -2.730300 36.073799
rtibia 126.062798
rfoot -28.738800 -17.105181
rtoes -35.205799
lfemur -33.138599 7.195540 -55.569401
ltibia 53.188801
lfoot -29.411600 8.947040
ltoes 3.053800
458
root 21.647800 34.795200 56.394798 9.353180 3.660760 3.875660
lowerback -9.362560 -4.415560 -5.757260
upperback -2.310680 -5.672260 3.591400
thorax 3.328480 -2.861420 6.575020
lowerneck -43.303001 -6.148380 -20.695400
upperneck 49.881401 -7.133920 19.332020
head 24.379000 -2.655600 9.674400
rclavicle 0.000000 0.000000
rhumerus -91.161598 21.707800 -175.058197
rradius 73.087196
rwrist -30.919600
rhand -60.191002 -62.635399
rfingers 14.250040
rthumb -6.819400 -122.540398
lclavicle 0.000000 0.000000
lhumerus -41.851002 -32.943401 177.624207
lradius 45.157001
lwrist -3.043500
lhand -25.698999 -47.656601
lfingers 14.250040
lthumb 26.476400 11.462620
rfemur -50.303799 -2.547740 35.667198
rtibia 124.974197
rfoot -30.181400 -17.133421
rtoes -31.086599
lfemur -31.886200 7.182460 -55.935200
ltibia 52.987202
lfoot -29.821800 8.924100
ltoes 4.294760
459
root 21.676001 34.766800 56.659801 8.832720 4.070460 5.117140
lowerback -10.064520 -4.731660 -6.677840
upperback -1.331104 -6.013520 3.062940
thorax 4.776480 -3.075040 6.470860
lowerneck -44.044601 -6.447840 -21.440800
upperneck 49.390202 -7.645740 20.877001
head 24.451401 -2.736660 10.313400
rclavicle 0.000000 0.000000
rhumerus -90.309196 20.538401 -174.348404
rradius 73.613800
rwrist -30.427601
rhand -60.072201 -60.134998
rfingers 14.250040
rthumb -6.704600 -120.041801
lclavicle 0.000000 0.000000
lhumerus -39.298599 -33.507599 176.507599
lradius 46.042999
lwrist -2.513340
lhand -25.405001 -47.050999
lfingers 14.250040
lthumb 26.760000 12.049820
rfemur -51.567402 -2.888680 34.066200
rtibia 123.575798
rfoot -30.917801 -16.712440
rtoes -30.823200
lfemur -30.156200 7.299180 -57.302399
ltibia 53.048199
lfoot -30.836599 8.314380
ltoes 5.581520
460
root 21.687000 34.772202 56.905800 8.710980 4.990140 5.204300
lowerback -13.354660 -5.051300 -6.606980
upperback 1.477922 -6.323640 2.800140
thorax 9.548400 -3.344380 5.930520
lowerneck -46.163399 -6.937560 -21.171400
upperneck 47.726002 -8.166700 21.097799
head 24.291800 -2.850520 10.208800
rclavicle 0.000000 0.000000
rhumerus -86.025803 19.734520 -173.911194
rradius 73.370201
rwrist -31.528200
rhand -61.509602 -57.281399
rfingers 14.250040
rthumb -8.092800 -117.164001
lclavicle 0.000000 0.000000
lhumerus -33.008801 -35.527000 174.404999
lradius 46.614201
lwrist -1.035314
lhand -25.656200 -47.102402
lfingers 14.250040
lthumb 26.517799 12.014260
rfemur -53.088600 -3.019560 33.910999
rtibia 121.736801
rfoot -32.130402 -16.590481
rtoes -35.589600
lfemur -28.914801 6.805620 -57.321201
ltibia 52.881001
lfoot -31.735800 7.741220
ltoes 6.473880
461
root 21.685400 34.782200 57.118000 9.244280 5.746620 4.995240
lowerback -10.933420 -5.519340 -6.727640
upperback -0.990388 -7.041700 3.371040
thorax 5.722360 -3.611660 6.684920
lowerneck -43.636398 -6.260060 -20.869600
upperneck 49.067402 -7.215660 19.573080
head 24.146799 -2.663300 9.753600
rclavicle -0.000000 0.000000
rhumerus -90.285202 20.991400 -174.145798
rradius 74.297798
rwrist -33.976398
rhand -63.359001 -55.439400
rfingers 14.250040
rthumb -9.878460 -115.284203
lclavicle -0.000000 0.000000
lhumerus -35.511600 -35.497398 175.510406
lradius 47.543800
lwrist -0.188070
lhand -26.212200 -47.644402
lfingers 14.250040
lthumb 25.982000 11.506760
rfemur -55.411800 -2.613560 34.222599
rtibia 119.619003
rfoot -33.450401 -17.016701
rtoes -37.896599
lfemur -28.855200 6.153440 -56.973000
ltibia 52.811001
lfoot -32.158798 7.566840
ltoes 7.054060
462
root 21.705000 34.772202 57.351398 9.221160 6.027940 5.972880
lowerback -9.503540 -5.846880 -7.566660
upperback -2.065860 -7.480360 3.223160
thorax 3.892480 -3.786800 7.067320
lowerneck -42.739201 -6.204600 -21.534800
upperneck 49.750999 -7.196060 20.094601
head 24.256399 -2.679960 10.099680
rclavicle -0.000000 -0.000000
rhumerus -92.558998 21.190001 -174.225601
rradius 75.198196
rwrist -35.724201
rhand -65.537201 -51.549599
rfingers 14.250040
rthumb -11.981680 -111.340202
lclavicle -0.000000 -0.000000
lhumerus -36.018200 -36.072399 175.520798
lradius 48.400002
lwrist 1.090706
lhand -26.523001 -47.908600
lfingers 14.250040
lthumb 25.682199 11.261500
rfemur -57.051201 -2.370180 32.953999
rtibia 117.426003
rfoot -34.363201 -16.902840
rtoes -37.142200
lfemur -28.065599 6.086260 -58.006001
ltibia 53.053001
lfoot -33.075199 7.556300
ltoes 7.614900
463
root 21.728600 34.779202 57.588799 8.934900 6.212400 5.544120
lowerback -9.457660 -6.117720 -7.110480
upperback -1.726256 -7.868320 3.416020
thorax 4.235740 -3.990840 6.973320
lowerneck -42.830601 -5.869100 -21.476601
upperneck 49.539600 -6.755700 20.247999
head 24.135599 -2.453180 10.214340
rclavicle 0.000000 0.000000
rhumerus -92.628601 21.344000 -174.145401
rradius 76.086403
rwrist -36.512199
rhand -69.874603 -45.923199
rfingers 14.250040
rthumb -16.168600 -105.573997
lclavicle 0.000000 0.000000
lhumerus -34.402802 -36.514599 174.607803
lradius 49.499599
lwrist 2.175360
lhand -26.733801 -47.996799
lfingers 14.250040
lthumb 25.479000 11.185980
rfemur -58.397400 -1.766398 33.253399
rtibia 115.177399
rfoot -35.296600 -16.965139
rtoes -35.081600
lfemur -26.627600 5.981460 -57.480598
ltibia 52.870602
lfoot -34.178600 7.605300
ltoes 9.190340
464
root 21.741400 34.801998 57.812000 8.998720 6.466360 4.251940
lowerback -10.799660 -6.343520 -5.835600
upperback -0.592736 -8.211200 3.774140
thorax 6.125260 -4.198660 6.492320
lowerneck -44.262001 -6.199260 -21.600201
upperneck 48.956402 -7.158720 20.809799
head 24.261600 -2.535260 10.378140
rclavicle 0.000000 -0.000000
rhumerus -91.032997 21.466400 -174.009201
rradius 76.447403
rwrist -37.188599
rhand -73.383003 -41.963600
rfingers 14.250040
rthumb -19.553980 -101.469803
lclavicle 0.000000 -0.000000
lhumerus -31.330000 -36.981800 173.250000
lradius 50.464199
lwrist 3.342560
lhand -27.182400 -48.158199
lfingers 14.250040
lthumb 25.046600 11.051140
rfemur -60.158001 -0.806694 34.612598
rtibia 112.893799
rfoot -36.199402 -17.705620
rtoes -31.202999
lfemur -25.454201 5.647960 -55.960400
ltibia 52.080399
lfoot -34.684200 7.532080
ltoes 10.045100
465
root 21.742599 34.785400 58.038399 8.992440 6.825320 4.766960
lowerback -12.244300 -6.657980 -6.241440
upperback 0.758270 -8.554440 3.372480
thorax 8.365540 -4.423180 6.144780
lowerneck -45.663601 -6.222520 -20.332800
upperneck 48.546600 -7.285780 20.137800
head 24.355801 -2.521140 9.866420
rclavicle -0.000000 0.000000
rhumerus -88.882202 20.863400 -174.024002
rradius 76.190598
rwrist -37.634998
rhand -68.913200 -46.920601
rfingers 14.250040
rthumb -15.240540 -106.606003
lclavicle -0.000000 0.000000
lhumerus -27.846600 -37.467201 171.455200
lradius 51.152599
lwrist 4.561420
lhand -27.820801 -48.551998
lfingers 14.250040
lthumb 24.431000 10.694500
rfemur -61.832199 -0.228052 33.927399
rtibia 110.561203
rfoot -36.682598 -18.430441
rtoes -29.080000
lfemur -24.017401 5.780860 -56.442200
ltibia 51.299801
lfoot -34.896599 7.252560
ltoes 7.713180
466
root 21.737200 34.751598 58.271400 8.940280 7.262440 5.275360
lowerback -9.893400 -7.290640 -7.099420
upperback -0.967570 -9.420180 3.541800
thorax 5.410320 -4.799640 6.917540
lowerneck -44.655800 -5.482940 -19.262020
upperneck 50.092201 -6.481640 18.978020
head 24.614599 -2.245740 9.416980
rclavicle 0.000000 0.000000
rhumerus -92.007004 21.538200 -174.225006
rradius 76.811401
rwrist -37.410400
rhand -76.653801 -31.163200
rfingers 14.250040
rthumb -22.709200 -90.508400
lclavicle 0.000000 0.000000
lhumerus -29.898800 -36.134998 171.664597
lradius 52.324001
lwrist 5.066160
lhand -28.385000 -48.899200
lfingers 14.250040
lthumb 23.886999 10.379320
rfemur -63.211601 0.132968 33.273800
rtibia 107.974998
rfoot -37.089802 -18.805580
rtoes -29.629801
lfemur -22.434401 6.190420 -56.874401
ltibia 50.188801
lfoot -34.866402 6.836800
ltoes 4.014700
